<svg width="160" height="160" viewBox="0 0 160 160" fill="none" xmlns="http://www.w3.org/2000/svg">
<g clip-path="url(#clip0_123_578)">
<rect width="160" height="160" fill="white"/>
<path d="M50.0262 120.282C53.3704 112.834 57.747 106.033 63.5181 100.272C69.3054 94.4954 76.2993 90.4007 84.0089 87.4769C83.8377 87.1865 83.667 86.8961 83.4958 86.6057C68.3962 87.1746 56.8754 94.5777 47.4854 106.382C44.6931 102.774 42.8389 98.9734 41.4797 95.0184C39.2251 88.458 38.3944 81.6707 39.457 74.735C40.2035 69.8619 41.2804 65.1065 43.6231 60.6888C44.2851 59.4403 45.0816 59.2192 46.227 59.4977C48.4439 60.0365 50.6262 60.7454 52.8647 61.1557C54.3647 61.4307 55.8804 62.0457 57.5612 61.6619C57.5666 60.583 57.017 59.873 56.5089 59.1496C54.8962 56.855 53.3689 54.4927 51.6335 52.2946C50.4347 50.7765 50.8174 49.8527 52.0504 48.58C55.1497 45.3815 58.6254 42.6915 62.4643 40.4957C68.9931 36.7607 75.997 34.6381 83.5781 34.4412C88.6039 34.3107 93.4912 35.0798 98.2435 36.5344C101.564 37.5506 104.862 38.7861 107.695 40.9496C107.362 41.4938 106.873 41.423 106.447 41.4423C98.2216 41.8103 91.7443 45.2553 87.4074 52.3615C85.307 55.803 84.6531 69.3307 85.5601 72.0734C87.3324 77.4311 90.5808 81.9127 94.5339 85.9011C98.7808 90.1861 103.442 94.0915 106.472 99.468C111.357 108.136 110.855 115.709 105.239 123.272C99.1797 131.431 88.882 133.089 79.452 130.193C74.3208 128.617 69.8151 125.793 66.1874 121.72C65.5462 121.001 64.7747 120.041 63.9524 121.459C62.4839 123.992 60.8904 126.457 59.762 129.18C59.237 130.447 59.5731 131.144 60.7585 131.811C65.9435 134.728 71.2877 137.142 77.2131 138.196C82.5177 139.14 87.7616 139.456 93.0812 138.287C100.896 136.571 107.796 133.313 112.88 126.921C118.708 119.593 121.447 111.408 119.437 102.005C117.914 94.875 114.134 89.0527 108.774 84.2569C104.03 80.0119 99.5324 75.6423 96.9127 69.6607C94.2808 63.6503 95.3504 56.0088 99.6543 51.3957C102.839 47.9819 106.906 46.4338 111.433 46.4388C114.267 46.4419 117.117 47.0315 119.82 48.1057C121.082 48.6069 122.302 48.5546 123.173 47.1784C124.039 45.8107 123.325 44.9861 122.445 44.0111C120.342 41.6792 117.916 39.7657 115.467 37.8084C110.164 33.5701 104.1 30.964 97.7347 29.0869C90.5185 26.9587 83.077 26.471 75.6097 27.6468C70.2693 28.4879 65.0577 29.7074 60.0647 32.0118C54.2408 34.6996 49.0808 38.2406 44.5127 42.6457C40.7339 46.29 37.5863 50.468 34.952 55.0384C30.6657 62.4754 28.4518 70.525 27.8534 79.0177C27.4978 84.065 28.2667 89.0234 29.3341 93.9923C31.6141 104.605 36.634 113.65 44.1347 121.383C47.3551 124.703 47.8154 124.598 50.0262 120.282Z" fill="#1A202C"/>
<path d="M50.0262 120.282C53.3704 112.834 57.747 106.033 63.5181 100.272C69.3054 94.4954 76.2993 90.4007 84.0089 87.4769C83.8377 87.1865 83.667 86.8961 83.4958 86.6057C68.3962 87.1746 56.8754 94.5777 47.4854 106.382C44.6931 102.774 42.8389 98.9734 41.4797 95.0184C39.2251 88.458 38.3944 81.6707 39.457 74.735C40.2035 69.8619 41.2804 65.1065 43.6231 60.6888C44.2851 59.4403 45.0816 59.2192 46.227 59.4977C48.4439 60.0365 50.6262 60.7454 52.8647 61.1557C54.3647 61.4307 55.8804 62.0457 57.5612 61.6619C57.5666 60.583 57.017 59.873 56.5089 59.1496C54.8962 56.855 53.3689 54.4927 51.6335 52.2946C50.4347 50.7765 50.8174 49.8527 52.0504 48.58C55.1497 45.3815 58.6254 42.6915 62.4643 40.4957C68.9931 36.7607 75.997 34.6381 83.5781 34.4412C88.6039 34.3107 93.4912 35.0798 98.2435 36.5344C101.564 37.5506 104.862 38.7861 107.695 40.9496C107.362 41.4938 106.873 41.423 106.447 41.4423C98.2216 41.8103 91.7443 45.2553 87.4074 52.3615C86.4254 53.9707 84.8658 57.7446 84.5277 61.6303C84.1431 66.055 85.0774 70.613 85.5601 72.0734C87.3324 77.4311 90.5808 81.9127 94.5339 85.9011C98.7808 90.1861 103.442 94.0915 106.472 99.468C111.357 108.136 110.855 115.709 105.239 123.272C99.1797 131.431 88.882 133.089 79.452 130.193C74.3208 128.617 69.8151 125.793 66.1874 121.72C65.5462 121.001 64.7747 120.041 63.9524 121.459C62.4839 123.992 60.8904 126.457 59.762 129.18C59.237 130.447 59.5731 131.144 60.7585 131.811C65.9435 134.728 71.2877 137.142 77.2131 138.196C82.5177 139.14 87.7616 139.456 93.0812 138.287C100.896 136.571 107.796 133.313 112.88 126.921C118.708 119.593 121.447 111.408 119.437 102.005C117.914 94.875 114.134 89.0527 108.774 84.2569C104.03 80.0119 99.5324 75.6423 96.9127 69.6607C94.2808 63.6503 95.3504 56.0088 99.6543 51.3957C102.839 47.9819 106.906 46.4338 111.433 46.4388C114.267 46.4419 117.117 47.0315 119.82 48.1057C121.082 48.6069 122.302 48.5546 123.173 47.1784C124.039 45.8107 123.325 44.9861 122.445 44.0111C120.342 41.6792 117.916 39.7657 115.467 37.8084C110.164 33.5701 104.1 30.964 97.7347 29.0869C90.5185 26.9587 83.077 26.471 75.6097 27.6468C70.2693 28.4879 65.0577 29.7074 60.0647 32.0118C54.2408 34.6996 49.0808 38.2406 44.5127 42.6457C40.7339 46.29 37.5863 50.468 34.952 55.0384C30.6657 62.4754 28.4518 70.525 27.8534 79.0177C27.4978 84.065 28.2667 89.0234 29.3341 93.9923C31.6141 104.605 36.634 113.65 44.1347 121.383C47.3551 124.703 47.8154 124.598 50.0262 120.282Z" fill="#1A202C"/>
</g>
<defs>
<clipPath id="clip0_123_578">
<rect width="160" height="160" fill="white"/>
</clipPath>
</defs>
</svg>
