<svg width="22" height="22" viewBox="0 0 22 22" fill="none" xmlns="http://www.w3.org/2000/svg">
<path d="M10.9999 7.25024C10.2583 7.25024 9.53324 7.47018 8.91655 7.88223C8.29987 8.29429 7.81922 8.87996 7.53539 9.56518C7.25156 10.2504 7.1773 11.0044 7.322 11.7318C7.46669 12.4593 7.82384 13.1274 8.34829 13.6519C8.87274 14.1763 9.54092 14.5335 10.2684 14.6782C10.9958 14.8229 11.7498 14.7486 12.435 14.4648C13.1202 14.181 13.7059 13.7003 14.1179 13.0836C14.53 12.4669 14.7499 11.7419 14.7499 11.0002C14.747 10.0066 14.3509 9.05449 13.6483 8.35187C12.9457 7.64925 11.9936 7.25321 10.9999 7.25024ZM19.0962 11.0002C19.0942 11.3506 19.0686 11.7005 19.0193 12.0474L21.3017 13.8343C21.4011 13.9164 21.468 14.0311 21.4906 14.1581C21.5132 14.285 21.4899 14.4158 21.4249 14.5271L19.2659 18.2546C19.2002 18.365 19.0978 18.4486 18.9766 18.4909C18.8553 18.5332 18.7231 18.5313 18.6031 18.4857L15.9195 17.4076C15.3607 17.8379 14.7491 18.195 14.0998 18.4702L13.6985 21.3193C13.6761 21.4469 13.61 21.5628 13.5116 21.6471C13.4132 21.7314 13.2886 21.7789 13.159 21.7815H8.84088C8.71368 21.779 8.59108 21.7335 8.49309 21.6524C8.3951 21.5712 8.32751 21.4593 8.30135 21.3348L7.9001 18.4857C7.24894 18.2137 6.63699 17.856 6.08041 17.4221L3.39682 18.5002C3.27686 18.5459 3.14464 18.5478 3.02341 18.5056C2.90219 18.4634 2.79971 18.3799 2.73401 18.2696L0.574945 14.5426C0.509956 14.4313 0.486674 14.3004 0.509258 14.1735C0.531842 14.0466 0.598821 13.9319 0.698226 13.8498L2.98057 12.0629C2.93189 11.7107 2.90621 11.3558 2.90369 11.0002C2.90564 10.6498 2.93133 10.3 2.98057 9.95305L0.698226 8.16618C0.598821 8.0841 0.531842 7.96935 0.509258 7.84243C0.486674 7.71551 0.509956 7.5847 0.574945 7.47337L2.73401 3.74587C2.79964 3.63552 2.90208 3.55186 3.02332 3.50959C3.14455 3.46732 3.27681 3.46915 3.39682 3.51477L6.08041 4.5929C6.63922 4.16259 7.25073 3.80548 7.9001 3.53024L8.30135 0.681182C8.3238 0.553564 8.38988 0.437706 8.48829 0.353405C8.5867 0.269105 8.71133 0.221595 8.84088 0.218994H13.159C13.2862 0.22147 13.4088 0.26699 13.5068 0.348124C13.6048 0.429257 13.6724 0.541212 13.6985 0.665713L14.0998 3.51477C14.7518 3.78664 15.3645 4.14433 15.9218 4.57837L18.6031 3.50024C18.723 3.45458 18.8552 3.45267 18.9765 3.49486C19.0977 3.53704 19.2002 3.6206 19.2659 3.73087L21.4249 7.45837C21.4899 7.5697 21.5132 7.70051 21.4906 7.82743C21.468 7.95435 21.4011 8.0691 21.3017 8.15118L19.0193 9.93805C19.068 10.2901 19.0937 10.6449 19.0962 11.0002Z" fill="#718096"/>
</svg>
